<?xml version="1.0" encoding="UTF-8" standalone="no"?>
<!-- 由 Microsoft Visio, SVG Export 生成 The Power X Lab logo 202511.svg Page-1 -->

<svg
   width="8.26772in"
   height="11.6929in"
   viewBox="0 0 595.276 841.89"
   xml:space="preserve"
   color-interpolation-filters="sRGB"
   class="st15"
   version="1.1"
   id="svg79"
   sodipodi:docname="Logo.svg"
   inkscape:version="1.4.1 (93de688d, 2025-03-30)"
   xmlns:inkscape="http://www.inkscape.org/namespaces/inkscape"
   xmlns:sodipodi="http://sodipodi.sourceforge.net/DTD/sodipodi-0.dtd"
   xmlns="http://www.w3.org/2000/svg"
   xmlns:svg="http://www.w3.org/2000/svg"
   xmlns:v="http://schemas.microsoft.com/visio/2003/SVGExtensions/"><defs
   id="defs79">
		
		
		
		
		
		
		
		
		
		
		
		
		
		
		
		
		
		
		
		
		
		
		
		
		
		
		
		
		
	
			
			
			
			
			
					</defs><sodipodi:namedview
   id="namedview79"
   pagecolor="#ffffff"
   bordercolor="#000000"
   borderopacity="0.25"
   inkscape:showpageshadow="2"
   inkscape:pageopacity="0.0"
   inkscape:pagecheckerboard="0"
   inkscape:deskcolor="#d1d1d1"
   inkscape:document-units="in"
   inkscape:zoom="1.6066516"
   inkscape:cx="-29.875799"
   inkscape:cy="449.69301"
   inkscape:window-width="2560"
   inkscape:window-height="1410"
   inkscape:window-x="0"
   inkscape:window-y="30"
   inkscape:window-maximized="0"
   inkscape:current-layer="svg79" />
	<v:documentProperties
   v:langID="1033"
   v:metric="true"
   v:viewMarkup="false">
		<v:userDefs>
			<v:ud
   v:nameU="msvSubprocessMaster"
   v:prompt=""
   v:val="VT4(Multi proc/doc)" />
			<v:ud
   v:nameU="msvNoAutoConnect"
   v:val="VT0(0):26" />
		</v:userDefs>
	</v:documentProperties>

	<style
   type="text/css"
   id="style1">
	<![CDATA[
		.st1 {fill:none;stroke:none;stroke-width:1.5}
		.st2 {fill:#ffffff;font-family:Arial Black;font-size:1.16666em;font-weight:bold}
		.st3 {fill:#4672c4;font-size:1em}
		.st4 {fill:#4672c4;font-size:1.71429em}
		.st5 {fill:none;stroke:none;stroke-width:0.25}
		.st6 {fill:#a50021;font-family:Arial Narrow;font-size:0.916672em;font-style:italic;font-weight:bold}
		.st7 {stroke:#4672c4;stroke-width:2.25}
		.st8 {stroke:#4672c4;stroke-linecap:butt;stroke-width:2.25}
		.st9 {fill:#4672c4;font-family:Arial Black;font-size:1.16666em;font-weight:bold}
		.st10 {stroke:#4672c4;stroke-linecap:butt;stroke-width:3}
		.st11 {stroke:#4672c4;stroke-width:3}
		.st12 {fill:#a50021;font-family:Arial Narrow;font-size:0.75em;font-style:italic;font-weight:bold}
		.st13 {fill:#4672c4;font-family:Arial Narrow;font-size:0.75em;font-style:italic;font-weight:bold}
		.st14 {fill:none;stroke:#4672c4;stroke-width:3}
		.st15 {fill:none;fill-rule:evenodd;font-size:12px;overflow:visible;stroke-linecap:square;stroke-miterlimit:3}
	]]>
	</style>

	<g
   id="shape118-1"
   v:mID="118"
   v:groupContext="shape"
   transform="translate(44.2914,-177.165)">
			<title
   id="title2">工作表.118</title>
			<desc
   id="desc2">The P X Lab</desc>
			<v:textBlock
   v:margins="rect(2,2,2,2)"
   v:tabSpace="42.5197" />
			<v:textRect
   cx="77.9528"
   cy="827.717"
   width="155.91"
   height="28.3465" />
			<rect
   x="0"
   y="813.54303"
   width="155.90601"
   height="28.3465"
   class="st1"
   id="rect2" />
			<text
   x="15.21"
   y="834.91998"
   class="st2"
   v:langID="1033"
   id="text6"><v:paragraph
   v:horizAlign="1" /><v:tabList />The<tspan
   class="st3"
   id="tspan2"> </tspan><tspan
   class="st4"
   id="tspan3">P</tspan><tspan
   class="st3"
   id="tspan4">     </tspan><tspan
   class="st4"
   id="tspan5">X</tspan><tspan
   class="st3"
   id="tspan6"> </tspan>Lab   </text>		</g><g
   id="shape94-9"
   v:mID="94"
   v:groupContext="shape"
   transform="translate(306.496,-170.079)">
			<title
   id="title6">工作表.94</title>
			<desc
   id="desc6">Power Everything with Integrated Circuits</desc>
			<v:textBlock
   v:margins="rect(2,2,2,2)"
   v:tabSpace="42.5197"
   v:verticalAlign="0" />
			<v:textRect
   cx="99.2126"
   cy="834.803"
   width="198.43"
   height="14.1732" />
			<rect
   x="0"
   y="827.71698"
   width="198.425"
   height="14.1732"
   class="st5"
   id="rect6" />
			<text
   x="9.7399998"
   y="839.62"
   class="st6"
   v:langID="1033"
   id="text8"><v:paragraph
   v:horizAlign="1" /><v:tabList />Power Everything<tspan
   class="st3"
   id="tspan7"> </tspan><tspan
   class="st3"
   id="tspan8">with Integrated Circuits</tspan></text>		</g><g
   id="group95-14"
   transform="translate(513.78,-170.079)"
   v:mID="95"
   v:groupContext="group">
			<title
   id="title8">GND.95</title>
			<g
   id="shape96-15"
   v:mID="96"
   v:groupContext="shape"
   transform="translate(5.31496,-5.66929)">
				<title
   id="title9">工作表.96</title>
				<path
   d="m 0,833.39 v 8.5"
   class="st7"
   id="path9" />
			</g>
			<g
   id="shape97-18"
   v:mID="97"
   v:groupContext="shape"
   transform="translate(0,-5.66929)">
				<title
   id="title10">工作表.97</title>
				<path
   d="M 0,841.89 H 10.63"
   class="st7"
   id="path10" />
			</g>
			<g
   id="shape98-21"
   v:mID="98"
   v:groupContext="shape"
   transform="translate(2.65748,-2.83465)">
				<title
   id="title11">工作表.98</title>
				<path
   d="M 0,841.89 H 5.31"
   class="st7"
   id="path11" />
			</g>
			<g
   id="shape99-24"
   v:mID="99"
   v:groupContext="shape"
   transform="translate(3.98622)">
				<title
   id="title12">工作表.99</title>
				<path
   d="M 0,841.89 H 2.66"
   class="st7"
   id="path12" />
			</g>
			<g
   id="shape100-27"
   v:mID="100"
   v:groupContext="shape"
   transform="matrix(0,-1,-1,0,847.205,836.22)">
				<title
   id="title13">工作表.100</title>
				<path
   d="M 0,841.89 H 8.5"
   class="st8"
   id="path13" />
			</g>
		</g><g
   id="group104-30"
   transform="rotate(-90,169.1925,495.5315)"
   v:mID="104"
   v:groupContext="group">
			<title
   id="title14">C.104</title>
			<g
   id="shape105-31"
   v:mID="105"
   v:groupContext="shape"
   transform="translate(0,-12.189)">
				<title
   id="title15">工作表.105</title>
				<path
   d="M 14.17,841.89 H 0"
   class="st7"
   id="path15" />
			</g>
			<g
   id="shape106-34"
   v:mID="106"
   v:groupContext="shape"
   transform="translate(0,-9.07087)">
				<title
   id="title16">工作表.106</title>
				<path
   d="M 14.17,841.89 H 0"
   class="st7"
   id="path16" />
			</g>
			<g
   id="shape107-37"
   v:mID="107"
   v:groupContext="shape"
   transform="matrix(0,-1,-1,0,848.976,829.701)">
				<title
   id="title17">工作表.107</title>
				<path
   d="M 0,841.89 H 357.05"
   class="st8"
   id="path17" />
			</g>
			<g
   id="shape108-40"
   v:mID="108"
   v:groupContext="shape"
   transform="rotate(90,8.0075,840.9685)">
				<title
   id="title18">工作表.108</title>
				<path
   d="M 0,841.89 H 12.74"
   class="st8"
   id="path18" />
			</g>
		</g><g
   id="group114-43"
   transform="rotate(-90,-20.9365,683.1185)"
   v:mID="114"
   v:groupContext="group">
			<title
   id="title19">L.114</title>
			<g
   id="shape115-44"
   v:mID="115"
   v:groupContext="shape"
   transform="matrix(0,-1,-1,0,841.89,835.853)">
				<title
   id="title20">工作表.115</title>
				<path
   d="m 0.01,836.97 a 4.04556,3.35033 82.75 0 1 3.09,-4.15 4.2393,3.94749 1.76 0 1 4.21,3.99 5.00261,2.08612 85.76 0 1 -1.75,5.08 4.87898,2.74236 101.8 0 1 -1.89,-5.09 4.53697,4.24285 124.86 0 1 4.83,-3.99 5.17051,4.4306 2.63 0 1 5.33,4.36 4.58445,2.03887 85.04 0 1 -1.68,4.72 4.53549,2.54174 102.36 0 1 -1.72,-4.72 5.11534,4.67682 116.19 0 1 5.31,-4.36 4.72068,4.04692 2.32 0 1 4.84,4 4.95796,2.20955 86.18 0 1 -1.92,5.08 4.88285,2.87367 103.46 0 1 -1.95,-5.1 4.47486,3.96542 104.8 0 1 4.36,-3.98 3.98792,3.56354 106.64 0 1 3.16,4.16"
   class="st7"
   id="path20" />
			</g>
			<g
   id="shape116-47"
   v:mID="116"
   v:groupContext="shape"
   transform="rotate(90,5.2925,841.1355)">
				<title
   id="title21">工作表.116</title>
				<path
   d="M 0,841.89 H 7.06"
   class="st7"
   id="path21" />
			</g>
			<g
   id="shape117-50"
   v:mID="117"
   v:groupContext="shape"
   transform="matrix(0,-1,-1,0,846.428,811.654)">
				<title
   id="title22">工作表.117</title>
				<path
   d="M 0,841.89 H 45.43"
   class="st7"
   id="path22" />
			</g>
		</g><g
   id="shape123-53"
   v:mID="123"
   v:groupContext="shape"
   transform="translate(156.26,-184.394)">
			<title
   id="title23">工作表.123</title>
			<desc
   id="desc23">LAB</desc>
			<v:textBlock
   v:margins="rect(2,2,2,2)"
   v:tabSpace="42.5197"
   v:verticalAlign="0" />
			<v:textRect
   cx="18.1417"
   cy="833.528"
   width="36.29"
   height="16.7244" />
			<rect
   x="0"
   y="825.16498"
   width="36.283501"
   height="16.7244"
   class="st1"
   id="rect23" />
			<text
   x="2.5799999"
   y="839.77002"
   class="st9"
   v:langID="1033"
   id="text23"><v:paragraph
   v:horizAlign="1" /><v:tabList />LAB</text>		</g><g
   id="shape124-56"
   v:mID="124"
   v:groupContext="shape"
   transform="translate(61.5827,-184.394)">
			<title
   id="title24">工作表.124</title>
			<desc
   id="desc24">HE</desc>
			<v:textBlock
   v:margins="rect(2,2,2,2)"
   v:tabSpace="42.5197"
   v:verticalAlign="0" />
			<v:textRect
   cx="16.1575"
   cy="833.528"
   width="32.32"
   height="16.7244" />
			<rect
   x="0"
   y="825.16498"
   width="32.314999"
   height="16.7244"
   class="st1"
   id="rect24" />
			<text
   x="5.27"
   y="839.77002"
   class="st9"
   v:langID="1033"
   id="text24"><v:paragraph
   v:horizAlign="1" /><v:tabList />HE</text>		</g><g
   id="group125-59"
   transform="translate(54.2126,-183.118)"
   v:mID="125"
   v:groupContext="group">
			<title
   id="title25">VDD.125</title>
			<g
   id="shape126-60"
   v:mID="126"
   v:groupContext="shape"
   transform="rotate(90,11.9055,837.0705)">
				<title
   id="title26">工作表.126</title>
				<path
   d="M 0,841.89 H 16.63"
   class="st10"
   id="path26" />
			</g>
			<g
   id="shape127-63"
   v:mID="127"
   v:groupContext="shape"
   transform="translate(0,-16.7244)">
				<title
   id="title27">工作表.127</title>
				<path
   d="M 0,841.89 H 14.17"
   class="st11"
   id="path27" />
			</g>
		</g><g
   id="shape150-66"
   v:mID="150"
   v:groupContext="shape"
   transform="translate(349.016,-106.299)"
   inkscape:export-filename="/Users/ricardosung/Desktop/PwrXLab/PwrXLab/Resources/images/lab_logo.svg"
   inkscape:export-xdpi="400"
   inkscape:export-ydpi="400">
			<title
   id="title28">工作表.150</title>
			<desc
   id="desc28">The P X Lab</desc>
			<v:textBlock
   v:margins="rect(2,2,2,2)"
   v:tabSpace="42.5197" />
			<v:textRect
   cx="77.9528"
   cy="827.717"
   width="155.91"
   height="28.3465" />
			<rect
   x="0"
   y="813.54303"
   width="155.90601"
   height="28.3465"
   class="st1"
   id="rect28" />
			<text
   x="15.21"
   y="834.91998"
   class="st2"
   v:langID="1033"
   id="text32"><v:paragraph
   v:horizAlign="1" /><v:tabList />The<tspan
   class="st3"
   id="tspan28"> </tspan><tspan
   class="st4"
   id="tspan29">P</tspan><tspan
   class="st3"
   id="tspan30">     </tspan><tspan
   class="st4"
   id="tspan31">X</tspan><tspan
   class="st3"
   id="tspan32"> </tspan>Lab   </text>		</g><g
   id="shape151-74"
   v:mID="151"
   v:groupContext="shape"
   transform="translate(349.016,-97.2118)">
			<title
   id="title32">工作表.151</title>
			<desc
   id="desc32">Power Everything with Integrated Circuits</desc>
			<v:textBlock
   v:margins="rect(2,2,2,2)"
   v:tabSpace="42.5197" />
			<v:textRect
   cx="77.9528"
   cy="837.346"
   width="155.91"
   height="9.08744" />
			<rect
   x="0"
   y="832.802"
   width="155.90601"
   height="9.0874395"
   class="st5"
   id="rect32" />
			<text
   x="7.5"
   y="840.04999"
   class="st12"
   v:langID="1033"
   id="text34"><v:paragraph
   v:horizAlign="2" /><v:tabList />Power Everything<tspan
   class="st3"
   id="tspan33"> </tspan><tspan
   class="st3"
   id="tspan34">with Integrated Circuits</tspan></text>		</g><g
   id="group152-79"
   transform="translate(513.78,-99.2126)"
   v:mID="152"
   v:groupContext="group">
			<title
   id="title34">GND.152</title>
			<g
   id="shape153-80"
   v:mID="153"
   v:groupContext="shape"
   transform="translate(5.31496,-5.66929)">
				<title
   id="title35">工作表.153</title>
				<path
   d="m 0,833.39 v 8.5"
   class="st7"
   id="path35" />
			</g>
			<g
   id="shape154-83"
   v:mID="154"
   v:groupContext="shape"
   transform="translate(0,-5.66929)">
				<title
   id="title36">工作表.154</title>
				<path
   d="M 0,841.89 H 10.63"
   class="st7"
   id="path36" />
			</g>
			<g
   id="shape155-86"
   v:mID="155"
   v:groupContext="shape"
   transform="translate(2.65748,-2.83465)">
				<title
   id="title37">工作表.155</title>
				<path
   d="M 0,841.89 H 5.31"
   class="st7"
   id="path37" />
			</g>
			<g
   id="shape156-89"
   v:mID="156"
   v:groupContext="shape"
   transform="translate(3.98622)">
				<title
   id="title38">工作表.156</title>
				<path
   d="M 0,841.89 H 2.66"
   class="st7"
   id="path38" />
			</g>
			<g
   id="shape157-92"
   v:mID="157"
   v:groupContext="shape"
   transform="matrix(0,-1,-1,0,847.205,836.22)">
				<title
   id="title39">工作表.157</title>
				<path
   d="M 0,841.89 H 8.5"
   class="st8"
   id="path39" />
			</g>
		</g><g
   id="group158-95"
   transform="rotate(-90,204.626,530.965)"
   v:mID="158"
   v:groupContext="group">
			<title
   id="title40">C.158</title>
			<g
   id="shape159-96"
   v:mID="159"
   v:groupContext="shape"
   transform="translate(0,-12.189)">
				<title
   id="title41">工作表.159</title>
				<path
   d="M 14.17,841.89 H 0"
   class="st7"
   id="path41" />
			</g>
			<g
   id="shape160-99"
   v:mID="160"
   v:groupContext="shape"
   transform="translate(0,-9.07087)">
				<title
   id="title42">工作表.160</title>
				<path
   d="M 14.17,841.89 H 0"
   class="st7"
   id="path42" />
			</g>
			<g
   id="shape161-102"
   v:mID="161"
   v:groupContext="shape"
   transform="matrix(-8.9011792e-5,-1,-1,8.9011792e-5,848.976,829.626)">
				<title
   id="title43">工作表.161</title>
				<path
   d="M 0,841.89 H 52.54"
   class="st8"
   id="path43" />
			</g>
			<g
   id="shape162-105"
   v:mID="162"
   v:groupContext="shape"
   transform="rotate(90,8.0075,840.9685)">
				<title
   id="title44">工作表.162</title>
				<path
   d="M 0,841.89 H 12.74"
   class="st8"
   id="path44" />
			</g>
		</g><g
   id="group163-108"
   transform="rotate(-90,166.8585,566.1895)"
   v:mID="163"
   v:groupContext="group">
			<title
   id="title45">L.163</title>
			<g
   id="shape164-109"
   v:mID="164"
   v:groupContext="shape"
   transform="matrix(0,-1,-1,0,841.89,835.853)">
				<title
   id="title46">工作表.164</title>
				<path
   d="m 0.01,836.97 a 4.04556,3.35033 82.75 0 1 3.09,-4.15 4.2393,3.94749 1.76 0 1 4.21,3.99 5.00261,2.08612 85.76 0 1 -1.75,5.08 4.87898,2.74236 101.8 0 1 -1.89,-5.09 4.53697,4.24285 124.86 0 1 4.83,-3.99 5.17051,4.4306 2.63 0 1 5.33,4.36 4.58445,2.03887 85.04 0 1 -1.68,4.72 4.53549,2.54174 102.36 0 1 -1.72,-4.72 5.11534,4.67682 116.19 0 1 5.31,-4.36 4.72068,4.04692 2.32 0 1 4.84,4 4.95796,2.20955 86.18 0 1 -1.92,5.08 4.88285,2.87367 103.46 0 1 -1.95,-5.1 4.47486,3.96542 104.8 0 1 4.36,-3.98 3.98792,3.56354 106.64 0 1 3.16,4.16"
   class="st7"
   id="path46" />
			</g>
			<g
   id="shape165-112"
   v:mID="165"
   v:groupContext="shape"
   transform="rotate(90,5.2925,841.1355)">
				<title
   id="title47">工作表.165</title>
				<path
   d="M 0,841.89 H 7.06"
   class="st7"
   id="path47" />
			</g>
			<g
   id="shape166-115"
   v:mID="166"
   v:groupContext="shape"
   transform="matrix(0,-1,-1,0,846.428,811.654)">
				<title
   id="title48">工作表.166</title>
				<path
   d="M 0,841.89 H 45.43"
   class="st7"
   id="path48" />
			</g>
		</g><g
   id="shape167-118"
   v:mID="167"
   v:groupContext="shape"
   transform="translate(460.984,-113.528)">
			<title
   id="title49">工作表.167</title>
			<desc
   id="desc49">LAB</desc>
			<v:textBlock
   v:margins="rect(2,2,2,2)"
   v:tabSpace="42.5197"
   v:verticalAlign="0" />
			<v:textRect
   cx="18.1417"
   cy="833.528"
   width="36.29"
   height="16.7244" />
			<rect
   x="0"
   y="825.16498"
   width="36.283501"
   height="16.7244"
   class="st1"
   id="rect49" />
			<text
   x="2.5799999"
   y="839.77002"
   class="st9"
   v:langID="1033"
   id="text49"><v:paragraph
   v:horizAlign="1" /><v:tabList />LAB</text>		</g><g
   id="shape168-121"
   v:mID="168"
   v:groupContext="shape"
   transform="translate(366.307,-113.528)">
			<title
   id="title50">工作表.168</title>
			<desc
   id="desc50">HE</desc>
			<v:textBlock
   v:margins="rect(2,2,2,2)"
   v:tabSpace="42.5197"
   v:verticalAlign="0" />
			<v:textRect
   cx="16.1575"
   cy="833.528"
   width="32.32"
   height="16.7244" />
			<rect
   x="0"
   y="825.16498"
   width="32.314999"
   height="16.7244"
   class="st1"
   id="rect50" />
			<text
   x="5.27"
   y="839.77002"
   class="st9"
   v:langID="1033"
   id="text50"><v:paragraph
   v:horizAlign="1" /><v:tabList />HE</text>		</g><g
   id="group169-124"
   transform="translate(358.937,-112.252)"
   v:mID="169"
   v:groupContext="group">
			<title
   id="title51">VDD.169</title>
			<g
   id="shape170-125"
   v:mID="170"
   v:groupContext="shape"
   transform="rotate(90,11.9055,837.0705)">
				<title
   id="title52">工作表.170</title>
				<path
   d="M 0,841.89 H 16.63"
   class="st10"
   id="path52" />
			</g>
			<g
   id="shape171-128"
   v:mID="171"
   v:groupContext="shape"
   transform="translate(0,-16.7244)">
				<title
   id="title53">工作表.171</title>
				<path
   d="M 0,841.89 H 14.17"
   class="st11"
   id="path53" />
			</g>
		</g><g
   id="shape174-131"
   v:mID="174"
   v:groupContext="shape"
   transform="translate(347.244,-283.465)">
			<title
   id="title54">工作表.174</title>
			<desc
   id="desc54">The P X Lab</desc>
			<v:textBlock
   v:margins="rect(2,2,2,2)"
   v:tabSpace="42.5197" />
			<v:textRect
   cx="77.9528"
   cy="827.717"
   width="155.91"
   height="28.3465" />
			<rect
   x="0"
   y="813.54303"
   width="155.90601"
   height="28.3465"
   class="st1"
   id="rect54" />
			<text
   x="15.21"
   y="834.91998"
   class="st2"
   v:langID="1033"
   id="text58"><v:paragraph
   v:horizAlign="1" /><v:tabList />The<tspan
   class="st3"
   id="tspan54"> </tspan><tspan
   class="st4"
   id="tspan55">P</tspan><tspan
   class="st3"
   id="tspan56">     </tspan><tspan
   class="st4"
   id="tspan57">X</tspan><tspan
   class="st3"
   id="tspan58"> </tspan>Lab   </text>		</g><g
   id="shape175-139"
   v:mID="175"
   v:groupContext="shape"
   transform="translate(347.244,-274.377)">
			<title
   id="title58">工作表.175</title>
			<desc
   id="desc58">Power Everything with Integrated Circuits</desc>
			<v:textBlock
   v:margins="rect(2,2,2,2)"
   v:tabSpace="42.5197" />
			<v:textRect
   cx="77.9528"
   cy="837.346"
   width="155.91"
   height="9.08744" />
			<rect
   x="0"
   y="832.802"
   width="155.90601"
   height="9.0874395"
   class="st5"
   id="rect58" />
			<text
   x="7.5"
   y="840.04999"
   class="st13"
   v:langID="1033"
   id="text59"><v:paragraph
   v:horizAlign="2" /><v:tabList />Power Everything with Integrated Circuits</text>		</g><g
   id="group176-142"
   transform="translate(512.008,-276.378)"
   v:mID="176"
   v:groupContext="group">
			<title
   id="title59">GND.176</title>
			<g
   id="shape177-143"
   v:mID="177"
   v:groupContext="shape"
   transform="translate(5.31496,-5.66929)">
				<title
   id="title60">工作表.177</title>
				<path
   d="m 0,833.39 v 8.5"
   class="st7"
   id="path60" />
			</g>
			<g
   id="shape178-146"
   v:mID="178"
   v:groupContext="shape"
   transform="translate(0,-5.66929)">
				<title
   id="title61">工作表.178</title>
				<path
   d="M 0,841.89 H 10.63"
   class="st7"
   id="path61" />
			</g>
			<g
   id="shape179-149"
   v:mID="179"
   v:groupContext="shape"
   transform="translate(2.65748,-2.83465)">
				<title
   id="title62">工作表.179</title>
				<path
   d="M 0,841.89 H 5.31"
   class="st7"
   id="path62" />
			</g>
			<g
   id="shape180-152"
   v:mID="180"
   v:groupContext="shape"
   transform="translate(3.98622)">
				<title
   id="title63">工作表.180</title>
				<path
   d="M 0,841.89 H 2.66"
   class="st7"
   id="path63" />
			</g>
			<g
   id="shape181-155"
   v:mID="181"
   v:groupContext="shape"
   transform="matrix(0,-1,-1,0,847.205,836.22)">
				<title
   id="title64">工作表.181</title>
				<path
   d="M 0,841.89 H 8.5"
   class="st8"
   id="path64" />
			</g>
		</g><g
   id="group182-158"
   transform="rotate(-90,115.1575,443.2675)"
   v:mID="182"
   v:groupContext="group">
			<title
   id="title65">C.182</title>
			<g
   id="shape183-159"
   v:mID="183"
   v:groupContext="shape"
   transform="translate(0,-12.189)">
				<title
   id="title66">工作表.183</title>
				<path
   d="M 14.17,841.89 H 0"
   class="st7"
   id="path66" />
			</g>
			<g
   id="shape184-162"
   v:mID="184"
   v:groupContext="shape"
   transform="translate(0,-9.07087)">
				<title
   id="title67">工作表.184</title>
				<path
   d="M 14.17,841.89 H 0"
   class="st7"
   id="path67" />
			</g>
			<g
   id="shape185-165"
   v:mID="185"
   v:groupContext="shape"
   transform="matrix(-8.9011792e-5,-1,-1,8.9011792e-5,848.976,829.626)">
				<title
   id="title68">工作表.185</title>
				<path
   d="M 0,841.89 H 52.54"
   class="st8"
   id="path68" />
			</g>
			<g
   id="shape186-168"
   v:mID="186"
   v:groupContext="shape"
   transform="rotate(90,8.0075,840.9685)">
				<title
   id="title69">工作表.186</title>
				<path
   d="M 0,841.89 H 12.74"
   class="st8"
   id="path69" />
			</g>
		</g><g
   id="group187-171"
   transform="rotate(-90,77.39,478.492)"
   v:mID="187"
   v:groupContext="group">
			<title
   id="title70">L.187</title>
			<g
   id="shape188-172"
   v:mID="188"
   v:groupContext="shape"
   transform="matrix(0,-1,-1,0,841.89,835.853)">
				<title
   id="title71">工作表.188</title>
				<path
   d="m 0.01,836.97 a 4.04556,3.35033 82.75 0 1 3.09,-4.15 4.2393,3.94749 1.76 0 1 4.21,3.99 5.00261,2.08612 85.76 0 1 -1.75,5.08 4.87898,2.74236 101.8 0 1 -1.89,-5.09 4.53697,4.24285 124.86 0 1 4.83,-3.99 5.17051,4.4306 2.63 0 1 5.33,4.36 4.58445,2.03887 85.04 0 1 -1.68,4.72 4.53549,2.54174 102.36 0 1 -1.72,-4.72 5.11534,4.67682 116.19 0 1 5.31,-4.36 4.72068,4.04692 2.32 0 1 4.84,4 4.95796,2.20955 86.18 0 1 -1.92,5.08 4.88285,2.87367 103.46 0 1 -1.95,-5.1 4.47486,3.96542 104.8 0 1 4.36,-3.98 3.98792,3.56354 106.64 0 1 3.16,4.16"
   class="st7"
   id="path71" />
			</g>
			<g
   id="shape189-175"
   v:mID="189"
   v:groupContext="shape"
   transform="rotate(90,5.2925,841.1355)">
				<title
   id="title72">工作表.189</title>
				<path
   d="M 0,841.89 H 7.06"
   class="st7"
   id="path72" />
			</g>
			<g
   id="shape190-178"
   v:mID="190"
   v:groupContext="shape"
   transform="matrix(0,-1,-1,0,846.428,811.654)">
				<title
   id="title73">工作表.190</title>
				<path
   d="M 0,841.89 H 45.43"
   class="st7"
   id="path73" />
			</g>
		</g><g
   id="shape191-181"
   v:mID="191"
   v:groupContext="shape"
   transform="translate(459.213,-290.693)">
			<title
   id="title74">工作表.191</title>
			<desc
   id="desc74">LAB</desc>
			<v:textBlock
   v:margins="rect(2,2,2,2)"
   v:tabSpace="42.5197"
   v:verticalAlign="0" />
			<v:textRect
   cx="18.1417"
   cy="833.528"
   width="36.29"
   height="16.7244" />
			<rect
   x="0"
   y="825.16498"
   width="36.283501"
   height="16.7244"
   class="st1"
   id="rect74" />
			<text
   x="2.5799999"
   y="839.77002"
   class="st9"
   v:langID="1033"
   id="text74"><v:paragraph
   v:horizAlign="1" /><v:tabList />LAB</text>		</g><g
   id="shape192-184"
   v:mID="192"
   v:groupContext="shape"
   transform="translate(364.535,-290.693)">
			<title
   id="title75">工作表.192</title>
			<desc
   id="desc75">HE</desc>
			<v:textBlock
   v:margins="rect(2,2,2,2)"
   v:tabSpace="42.5197"
   v:verticalAlign="0" />
			<v:textRect
   cx="16.1575"
   cy="833.528"
   width="32.32"
   height="16.7244" />
			<rect
   x="0"
   y="825.16498"
   width="32.314999"
   height="16.7244"
   class="st1"
   id="rect75" />
			<text
   x="5.27"
   y="839.77002"
   class="st9"
   v:langID="1033"
   id="text75"><v:paragraph
   v:horizAlign="1" /><v:tabList />HE</text>		</g><g
   id="group193-187"
   transform="translate(357.165,-289.417)"
   v:mID="193"
   v:groupContext="group">
			<title
   id="title76">VDD.193</title>
			<g
   id="shape194-188"
   v:mID="194"
   v:groupContext="shape"
   transform="rotate(90,11.9055,837.0705)">
				<title
   id="title77">工作表.194</title>
				<path
   d="M 0,841.89 H 16.63"
   class="st10"
   id="path77" />
			</g>
			<g
   id="shape195-191"
   v:mID="195"
   v:groupContext="shape"
   transform="translate(0,-16.7244)">
				<title
   id="title78">工作表.195</title>
				<path
   d="M 0,841.89 H 14.17"
   class="st11"
   id="path78" />
			</g>
		</g><g
   id="shape196-194"
   v:mID="196"
   v:groupContext="shape"
   transform="translate(340.157,-240.945)"
   inkscape:label="shape196-194">
			<title
   id="title79">工作表.196</title>
			<rect
   x="0"
   y="742.677"
   width="198.425"
   height="99.212601"
   class="st14"
   id="rect79" />
		</g>
<rect
   x="169.58881"
   y="322.28983"
   width="155.90601"
   height="28.3465"
   class="st1"
   id="rect28-9"
   style="fill:none;stroke:none;stroke-width:1.5"
   inkscape:export-filename="lab_logo.svg"
   inkscape:export-xdpi="400"
   inkscape:export-ydpi="400" /><text
   x="259.40775"
   y="343.66687"
   class="st2"
   v:langID="1033"
   id="text32-9-8"
   style="font-weight:bold;font-size:24px;font-family:'Arial Black';fill:#ffffff"><v:paragraph
     v:horizAlign="1" /><v:tabList /><tspan
     style="fill:#4672c4;fill-opacity:1"
     id="tspan80">X</tspan></text><text
   x="218.64786"
   y="343.66687"
   class="st2"
   v:langID="1033"
   id="text32-9-7"
   style="font-weight:bold;font-size:24px;font-family:'Arial Black';fill:#ffffff"><v:paragraph
     v:horizAlign="1" /><v:tabList /><tspan
     style="fill:#4672c4;fill-opacity:1"
     id="tspan79">P</tspan></text><g
   id="shape151-74-6"
   v:mID="151"
   v:groupContext="shape"
   transform="translate(169.5888,-482.16602)">
			<title
   id="title32-5">工作表.151</title>
			<desc
   id="desc32-7">Power Everything with Integrated Circuits</desc>
			<v:textBlock
   v:margins="rect(2,2,2,2)"
   v:tabSpace="42.5197" />
			<v:textRect
   cx="77.9528"
   cy="837.346"
   width="155.91"
   height="9.08744" />
			<rect
   x="0"
   y="832.802"
   width="155.90601"
   height="9.0874395"
   class="st5"
   id="rect32-6"
   style="fill:none;stroke:none;stroke-width:0.25" />
			<text
   x="7.5"
   y="840.04999"
   class="st12"
   v:langID="1033"
   id="text34-2"
   style="font-style:italic;font-weight:bold;font-size:9px;font-family:'Arial Narrow';fill:#a50021"><v:paragraph
   v:horizAlign="2" /><v:tabList />Power Everything<tspan
   class="st3"
   id="tspan33-7"> </tspan><tspan
   class="st3"
   id="tspan34-0">with Integrated Circuits</tspan></text>		</g><g
   id="group152-79-3"
   transform="translate(334.3528,-484.16682)"
   v:mID="152"
   v:groupContext="group">
			<title
   id="title34-9">GND.152</title>
			<g
   id="shape153-80-9"
   v:mID="153"
   v:groupContext="shape"
   transform="translate(5.31496,-5.66929)">
				<title
   id="title35-9">工作表.153</title>
				<path
   d="m 0,833.39 v 8.5"
   class="st7"
   id="path35-1"
   style="stroke:#4672c4;stroke-width:2.25" />
			</g>
			<g
   id="shape154-83-7"
   v:mID="154"
   v:groupContext="shape"
   transform="translate(0,-5.66929)">
				<title
   id="title36-2">工作表.154</title>
				<path
   d="M 0,841.89 H 10.63"
   class="st7"
   id="path36-3"
   style="stroke:#4672c4;stroke-width:2.25" />
			</g>
			<g
   id="shape155-86-6"
   v:mID="155"
   v:groupContext="shape"
   transform="translate(2.65748,-2.83465)">
				<title
   id="title37-5">工作表.155</title>
				<path
   d="M 0,841.89 H 5.31"
   class="st7"
   id="path37-5"
   style="stroke:#4672c4;stroke-width:2.25" />
			</g>
			<g
   id="shape156-89-8"
   v:mID="156"
   v:groupContext="shape"
   transform="translate(3.98622)">
				<title
   id="title38-1">工作表.156</title>
				<path
   d="M 0,841.89 H 2.66"
   class="st7"
   id="path38-4"
   style="stroke:#4672c4;stroke-width:2.25" />
			</g>
			<g
   id="shape157-92-7"
   v:mID="157"
   v:groupContext="shape"
   transform="matrix(0,-1,-1,0,847.205,836.22)">
				<title
   id="title39-1">工作表.157</title>
				<path
   d="M 0,841.89 H 8.5"
   class="st8"
   id="path39-3"
   style="stroke:#4672c4;stroke-width:2.25;stroke-linecap:butt" />
			</g>
		</g><g
   id="group158-95-8"
   transform="rotate(-90,-77.564706,428.20149)"
   v:mID="158"
   v:groupContext="group">
			<title
   id="title40-4">C.158</title>
			<g
   id="shape159-96-8"
   v:mID="159"
   v:groupContext="shape"
   transform="translate(0,-12.189)">
				<title
   id="title41-0">工作表.159</title>
				<path
   d="M 14.17,841.89 H 0"
   class="st7"
   id="path41-4"
   style="stroke:#4672c4;stroke-width:2.25" />
			</g>
			<g
   id="shape160-99-6"
   v:mID="160"
   v:groupContext="shape"
   transform="translate(0,-9.07087)">
				<title
   id="title42-0">工作表.160</title>
				<path
   d="M 14.17,841.89 H 0"
   class="st7"
   id="path42-3"
   style="stroke:#4672c4;stroke-width:2.25" />
			</g>
			<g
   id="shape161-102-2"
   v:mID="161"
   v:groupContext="shape"
   transform="matrix(-8.9011792e-5,-1,-1,8.9011792e-5,848.976,829.626)">
				<title
   id="title43-6">工作表.161</title>
				<path
   d="M 0,841.89 H 52.54"
   class="st8"
   id="path43-9"
   style="stroke:#4672c4;stroke-width:2.25;stroke-linecap:butt" />
			</g>
			<g
   id="shape162-105-4"
   v:mID="162"
   v:groupContext="shape"
   transform="rotate(90,8.0075,840.9685)">
				<title
   id="title44-1">工作表.162</title>
				<path
   d="M 0,841.89 H 12.74"
   class="st8"
   id="path44-3"
   style="stroke:#4672c4;stroke-width:2.25;stroke-linecap:butt" />
			</g>
		</g><g
   id="group163-108-7"
   transform="rotate(-90,-115.33221,463.42599)"
   v:mID="163"
   v:groupContext="group">
			<title
   id="title45-8">L.163</title>
			<g
   id="shape164-109-8"
   v:mID="164"
   v:groupContext="shape"
   transform="matrix(0,-1,-1,0,841.89,835.853)">
				<title
   id="title46-3">工作表.164</title>
				<path
   d="m 0.01,836.97 a 4.04556,3.35033 82.75 0 1 3.09,-4.15 4.2393,3.94749 1.76 0 1 4.21,3.99 5.00261,2.08612 85.76 0 1 -1.75,5.08 4.87898,2.74236 101.8 0 1 -1.89,-5.09 4.53697,4.24285 124.86 0 1 4.83,-3.99 5.17051,4.4306 2.63 0 1 5.33,4.36 4.58445,2.03887 85.04 0 1 -1.68,4.72 4.53549,2.54174 102.36 0 1 -1.72,-4.72 5.11534,4.67682 116.19 0 1 5.31,-4.36 4.72068,4.04692 2.32 0 1 4.84,4 4.95796,2.20955 86.18 0 1 -1.92,5.08 4.88285,2.87367 103.46 0 1 -1.95,-5.1 4.47486,3.96542 104.8 0 1 4.36,-3.98 3.98792,3.56354 106.64 0 1 3.16,4.16"
   class="st7"
   id="path46-8"
   style="stroke:#4672c4;stroke-width:2.25" />
			</g>
			<g
   id="shape165-112-1"
   v:mID="165"
   v:groupContext="shape"
   transform="rotate(90,5.2925,841.1355)">
				<title
   id="title47-5">工作表.165</title>
				<path
   d="M 0,841.89 H 7.06"
   class="st7"
   id="path47-3"
   style="stroke:#4672c4;stroke-width:2.25" />
			</g>
			<g
   id="shape166-115-5"
   v:mID="166"
   v:groupContext="shape"
   transform="matrix(0,-1,-1,0,846.428,811.654)">
				<title
   id="title48-4">工作表.166</title>
				<path
   d="M 0,841.89 H 45.43"
   class="st7"
   id="path48-3"
   style="stroke:#4672c4;stroke-width:2.25" />
			</g>
		</g><g
   id="shape167-118-6"
   v:mID="167"
   v:groupContext="shape"
   transform="translate(281.5568,-498.48222)">
			<title
   id="title49-5">工作表.167</title>
			<desc
   id="desc49-9">LAB</desc>
			<v:textBlock
   v:margins="rect(2,2,2,2)"
   v:tabSpace="42.5197"
   v:verticalAlign="0" />
			<v:textRect
   cx="18.1417"
   cy="833.528"
   width="36.29"
   height="16.7244" />
			<rect
   x="0"
   y="825.16498"
   width="36.283501"
   height="16.7244"
   class="st1"
   id="rect49-5"
   style="fill:none;stroke:none;stroke-width:1.5" />
			<text
   x="2.5799999"
   y="839.77002"
   class="st9"
   v:langID="1033"
   id="text49-4"
   style="font-weight:bold;font-size:13.9999px;font-family:'Arial Black';fill:#4672c4"><v:paragraph
   v:horizAlign="1" /><v:tabList />LAB</text>		</g><g
   id="shape168-121-9"
   v:mID="168"
   v:groupContext="shape"
   transform="translate(186.8798,-498.48222)">
			<title
   id="title50-1">工作表.168</title>
			<desc
   id="desc50-7">HE</desc>
			<v:textBlock
   v:margins="rect(2,2,2,2)"
   v:tabSpace="42.5197"
   v:verticalAlign="0" />
			<v:textRect
   cx="16.1575"
   cy="833.528"
   width="32.32"
   height="16.7244" />
			<rect
   x="0"
   y="825.16498"
   width="32.314999"
   height="16.7244"
   class="st1"
   id="rect50-5"
   style="fill:none;stroke:none;stroke-width:1.5" />
			<text
   x="5.27"
   y="839.77002"
   class="st9"
   v:langID="1033"
   id="text50-5"
   style="font-weight:bold;font-size:13.9999px;font-family:'Arial Black';fill:#4672c4"><v:paragraph
   v:horizAlign="1" /><v:tabList />HE</text>		</g><g
   id="group169-124-4"
   transform="translate(179.5098,-497.20622)"
   v:mID="169"
   v:groupContext="group">
			<title
   id="title51-1">VDD.169</title>
			<g
   id="shape170-125-8"
   v:mID="170"
   v:groupContext="shape"
   transform="rotate(90,11.9055,837.0705)">
				<title
   id="title52-8">工作表.170</title>
				<path
   d="M 0,841.89 H 16.63"
   class="st10"
   id="path52-3"
   style="stroke:#4672c4;stroke-width:3;stroke-linecap:butt" />
			</g>
			<g
   id="shape171-128-5"
   v:mID="171"
   v:groupContext="shape"
   transform="translate(0,-16.7244)">
				<title
   id="title53-2">工作表.171</title>
				<path
   d="M 0,841.89 H 14.17"
   class="st11"
   id="path53-2"
   style="stroke:#4672c4;stroke-width:3" />
			</g>
		</g><rect
   x="-228.00072"
   y="351.75055"
   width="155.90601"
   height="28.3465"
   class="st1"
   id="rect28-9-7"
   style="fill:none;stroke:none;stroke-width:1.5"
   inkscape:export-filename="lab_logo.svg"
   inkscape:export-xdpi="400"
   inkscape:export-ydpi="400" /><text
   x="-138.18178"
   y="373.12759"
   class="st2"
   v:langID="1033"
   id="text32-9-8-9"
   style="font-weight:bold;font-size:24px;font-family:'Arial Black';fill:#ffffff"><v:paragraph
   v:horizAlign="1" /><v:tabList />X</text><text
   x="-178.94167"
   y="373.12759"
   class="st2"
   v:langID="1033"
   id="text32-9-7-3"
   style="font-weight:bold;font-size:24px;font-family:'Arial Black';fill:#ffffff"><v:paragraph
   v:horizAlign="1" /><v:tabList />P</text><g
   id="shape151-74-6-3"
   v:mID="151"
   v:groupContext="shape"
   transform="translate(-228.00073,-452.70531)">
			<title
   id="title32-5-8">工作表.151</title>
			<desc
   id="desc32-7-5">Power Everything with Integrated Circuits</desc>
			<v:textBlock
   v:margins="rect(2,2,2,2)"
   v:tabSpace="42.5197" />
			<v:textRect
   cx="77.9528"
   cy="837.346"
   width="155.91"
   height="9.08744" />
			<rect
   x="0"
   y="832.802"
   width="155.90601"
   height="9.0874395"
   class="st5"
   id="rect32-6-8"
   style="fill:none;stroke:none;stroke-width:0.25" />
			<text
   x="7.5"
   y="840.04999"
   class="st12"
   v:langID="1033"
   id="text34-2-9"
   style="font-style:italic;font-weight:bold;font-size:9px;font-family:'Arial Narrow';fill:#a50021"><v:paragraph
     v:horizAlign="2" /><v:tabList /><tspan
     style="fill:#ffffff;fill-opacity:1"
     id="tspan81">Power Everything with Integrated Circuits</tspan></text>		</g><g
   id="group152-79-3-4"
   transform="translate(-63.23673,-454.70611)"
   v:mID="152"
   v:groupContext="group"
   style="stroke:#ffffff;stroke-opacity:1">
			<title
   id="title34-9-2">GND.152</title>
			<g
   id="shape153-80-9-3"
   v:mID="153"
   v:groupContext="shape"
   transform="translate(5.31496,-5.66929)"
   style="stroke:#ffffff;stroke-opacity:1">
				<title
   id="title35-9-3">工作表.153</title>
				<path
   d="m 0,833.39 v 8.5"
   class="st7"
   id="path35-1-7"
   style="stroke:#ffffff;stroke-width:2.25;stroke-opacity:1" />
			</g>
			<g
   id="shape154-83-7-0"
   v:mID="154"
   v:groupContext="shape"
   transform="translate(0,-5.66929)"
   style="stroke:#ffffff;stroke-opacity:1">
				<title
   id="title36-2-0">工作表.154</title>
				<path
   d="M 0,841.89 H 10.63"
   class="st7"
   id="path36-3-1"
   style="stroke:#ffffff;stroke-width:2.25;stroke-opacity:1" />
			</g>
			<g
   id="shape155-86-6-0"
   v:mID="155"
   v:groupContext="shape"
   transform="translate(2.65748,-2.83465)"
   style="stroke:#ffffff;stroke-opacity:1">
				<title
   id="title37-5-3">工作表.155</title>
				<path
   d="M 0,841.89 H 5.31"
   class="st7"
   id="path37-5-0"
   style="stroke:#ffffff;stroke-width:2.25;stroke-opacity:1" />
			</g>
			<g
   id="shape156-89-8-0"
   v:mID="156"
   v:groupContext="shape"
   transform="translate(3.98622)"
   style="stroke:#ffffff;stroke-opacity:1">
				<title
   id="title38-1-3">工作表.156</title>
				<path
   d="M 0,841.89 H 2.66"
   class="st7"
   id="path38-4-8"
   style="stroke:#ffffff;stroke-width:2.25;stroke-opacity:1" />
			</g>
			<g
   id="shape157-92-7-3"
   v:mID="157"
   v:groupContext="shape"
   transform="matrix(0,-1,-1,0,847.205,836.22)"
   style="stroke:#ffffff;stroke-opacity:1">
				<title
   id="title39-1-6">工作表.157</title>
				<path
   d="M 0,841.89 H 8.5"
   class="st8"
   id="path39-3-0"
   style="stroke:#ffffff;stroke-width:2.25;stroke-linecap:butt;stroke-opacity:1" />
			</g>
		</g><g
   id="group158-95-8-4"
   transform="rotate(-90,-261.62912,641.72661)"
   v:mID="158"
   v:groupContext="group"
   style="stroke:#ffffff;stroke-opacity:1">
			<title
   id="title40-4-0">C.158</title>
			<g
   id="shape159-96-8-9"
   v:mID="159"
   v:groupContext="shape"
   transform="translate(0,-12.189)"
   style="stroke:#ffffff;stroke-opacity:1">
				<title
   id="title41-0-2">工作表.159</title>
				<path
   d="M 14.17,841.89 H 0"
   class="st7"
   id="path41-4-4"
   style="stroke:#ffffff;stroke-width:2.25;stroke-opacity:1" />
			</g>
			<g
   id="shape160-99-6-9"
   v:mID="160"
   v:groupContext="shape"
   transform="translate(0,-9.07087)"
   style="stroke:#ffffff;stroke-opacity:1">
				<title
   id="title42-0-2">工作表.160</title>
				<path
   d="M 14.17,841.89 H 0"
   class="st7"
   id="path42-3-9"
   style="stroke:#ffffff;stroke-width:2.25;stroke-opacity:1" />
			</g>
			<g
   id="shape161-102-2-1"
   v:mID="161"
   v:groupContext="shape"
   transform="matrix(-8.9011792e-5,-1,-1,8.9011792e-5,848.976,829.626)"
   style="stroke:#ffffff;stroke-opacity:1">
				<title
   id="title43-6-0">工作表.161</title>
				<path
   d="M 0,841.89 H 52.54"
   class="st8"
   id="path43-9-9"
   style="stroke:#ffffff;stroke-width:2.25;stroke-linecap:butt;stroke-opacity:1" />
			</g>
			<g
   id="shape162-105-4-3"
   v:mID="162"
   v:groupContext="shape"
   transform="rotate(90,8.0075,840.9685)"
   style="stroke:#ffffff;stroke-opacity:1">
				<title
   id="title44-1-0">工作表.162</title>
				<path
   d="M 0,841.89 H 12.74"
   class="st8"
   id="path44-3-0"
   style="stroke:#ffffff;stroke-width:2.25;stroke-linecap:butt;stroke-opacity:1" />
			</g>
		</g><g
   id="group163-108-7-3"
   transform="rotate(-90,-299.39662,676.95111)"
   v:mID="163"
   v:groupContext="group"
   style="stroke:#ffffff;stroke-opacity:1">
			<title
   id="title45-8-0">L.163</title>
			<g
   id="shape164-109-8-1"
   v:mID="164"
   v:groupContext="shape"
   transform="matrix(0,-1,-1,0,841.89,835.853)"
   style="stroke:#ffffff;stroke-opacity:1">
				<title
   id="title46-3-9">工作表.164</title>
				<path
   d="m 0.01,836.97 a 4.04556,3.35033 82.75 0 1 3.09,-4.15 4.2393,3.94749 1.76 0 1 4.21,3.99 5.00261,2.08612 85.76 0 1 -1.75,5.08 4.87898,2.74236 101.8 0 1 -1.89,-5.09 4.53697,4.24285 124.86 0 1 4.83,-3.99 5.17051,4.4306 2.63 0 1 5.33,4.36 4.58445,2.03887 85.04 0 1 -1.68,4.72 4.53549,2.54174 102.36 0 1 -1.72,-4.72 5.11534,4.67682 116.19 0 1 5.31,-4.36 4.72068,4.04692 2.32 0 1 4.84,4 4.95796,2.20955 86.18 0 1 -1.92,5.08 4.88285,2.87367 103.46 0 1 -1.95,-5.1 4.47486,3.96542 104.8 0 1 4.36,-3.98 3.98792,3.56354 106.64 0 1 3.16,4.16"
   class="st7"
   id="path46-8-8"
   style="stroke:#ffffff;stroke-width:2.25;stroke-opacity:1" />
			</g>
			<g
   id="shape165-112-1-6"
   v:mID="165"
   v:groupContext="shape"
   transform="rotate(90,5.2925,841.1355)"
   style="stroke:#ffffff;stroke-opacity:1">
				<title
   id="title47-5-9">工作表.165</title>
				<path
   d="M 0,841.89 H 7.06"
   class="st7"
   id="path47-3-0"
   style="stroke:#ffffff;stroke-width:2.25;stroke-opacity:1" />
			</g>
			<g
   id="shape166-115-5-1"
   v:mID="166"
   v:groupContext="shape"
   transform="matrix(0,-1,-1,0,846.428,811.654)"
   style="stroke:#ffffff;stroke-opacity:1">
				<title
   id="title48-4-6">工作表.166</title>
				<path
   d="M 0,841.89 H 45.43"
   class="st7"
   id="path48-3-4"
   style="stroke:#ffffff;stroke-width:2.25;stroke-opacity:1" />
			</g>
		</g><g
   id="shape167-118-6-4"
   v:mID="167"
   v:groupContext="shape"
   transform="translate(-116.03273,-469.02151)">
			<title
   id="title49-5-8">工作表.167</title>
			<desc
   id="desc49-9-6">LAB</desc>
			<v:textBlock
   v:margins="rect(2,2,2,2)"
   v:tabSpace="42.5197"
   v:verticalAlign="0" />
			<v:textRect
   cx="18.1417"
   cy="833.528"
   width="36.29"
   height="16.7244" />
			<rect
   x="0"
   y="825.16498"
   width="36.283501"
   height="16.7244"
   class="st1"
   id="rect49-5-1"
   style="fill:none;stroke:none;stroke-width:1.5" />
			<text
   x="2.5799999"
   y="839.77002"
   class="st9"
   v:langID="1033"
   id="text49-4-4"
   style="font-weight:bold;font-size:13.9999px;font-family:'Arial Black';fill:#4672c4"><v:paragraph
     v:horizAlign="1" /><v:tabList /><tspan
     style="fill:#ffffff;fill-opacity:1"
     id="tspan83">LAB</tspan></text>		</g><g
   id="shape168-121-9-0"
   v:mID="168"
   v:groupContext="shape"
   transform="translate(-210.70973,-469.02151)">
			<title
   id="title50-1-8">工作表.168</title>
			<desc
   id="desc50-7-1">HE</desc>
			<v:textBlock
   v:margins="rect(2,2,2,2)"
   v:tabSpace="42.5197"
   v:verticalAlign="0" />
			<v:textRect
   cx="16.1575"
   cy="833.528"
   width="32.32"
   height="16.7244" />
			<rect
   x="0"
   y="825.16498"
   width="32.314999"
   height="16.7244"
   class="st1"
   id="rect50-5-0"
   style="fill:none;stroke:none;stroke-width:1.5" />
			<text
   x="5.27"
   y="839.77002"
   class="st9"
   v:langID="1033"
   id="text50-5-3"
   style="font-weight:bold;font-size:13.9999px;font-family:'Arial Black';fill:#4672c4"><v:paragraph
     v:horizAlign="1" /><v:tabList /><tspan
     style="fill:#ffffff;fill-opacity:1"
     id="tspan82">HE</tspan></text>		</g><g
   id="group169-124-4-1"
   transform="translate(-218.07973,-467.74551)"
   v:mID="169"
   v:groupContext="group">
			<title
   id="title51-1-1">VDD.169</title>
			<g
   id="shape170-125-8-5"
   v:mID="170"
   v:groupContext="shape"
   transform="rotate(90,11.9055,837.0705)"
   style="stroke:#ffffff;stroke-opacity:1">
				<title
   id="title52-8-0">工作表.170</title>
				<path
   d="M 0,841.89 H 16.63"
   class="st10"
   id="path52-3-8"
   style="stroke:#ffffff;stroke-width:3;stroke-linecap:butt;stroke-opacity:1" />
			</g>
			<g
   id="shape171-128-5-4"
   v:mID="171"
   v:groupContext="shape"
   transform="translate(0,-16.7244)"
   style="stroke:#ffffff;stroke-opacity:1">
				<title
   id="title53-2-9">工作表.171</title>
				<path
   d="M 0,841.89 H 14.17"
   class="st11"
   id="path53-2-3"
   style="stroke:#ffffff;stroke-width:3;stroke-opacity:1" />
			</g>
		</g></svg>
